<?xml version="1.0" encoding="utf-8"?>
<!-- Generator: Adobe Illustrator 27.5.0, SVG Export Plug-In . SVG Version: 6.00 Build 0)  -->
<svg version="1.1" xmlns="http://www.w3.org/2000/svg" xmlns:xlink="http://www.w3.org/1999/xlink" x="0px" y="0px"
	 viewBox="0 0 500 500" style="enable-background:new 0 0 500 500;" xml:space="preserve">
<g id="Background_complete">
	<g>
		<g>
			<g>
				<path style="fill:#E6E6E6;" d="M453.907,401.709c-4.777-3.41-12.144-4.104-17.342-6.83c-10.249-5.377-9.64-7.414-18.102-15.311
					c-5.586-5.213-19.991-11.284-24.018-22.817c-4.18-11.973-5.594-27.624-13.673-37.399l0.993-0.97
					c0,0,37.374,14.928,44.305,20.288c6.931,5.36,15.036,15.152,16.513,25.11c1.476,9.958-2.252,13.841,1.711,21.128
					c3.963,7.288,6.018,9.89,7.946,12.858C454.167,400.735,453.907,401.709,453.907,401.709z"/>
			</g>
		</g>
		<g>
			<path style="fill:#E0E0E0;" d="M381.156,318.977c16.857,7.651,29.824,22.313,38.534,38.4c2.09,4.105,4.203,8.154,6.596,12.067
				c7.11,11.776,16.167,22.373,27.166,30.719c-3.782-2.615-7.343-5.553-10.704-8.704c-10.079-9.508-17.797-21.286-23.935-33.624
				C410.235,341.812,397.543,327.269,381.156,318.977L381.156,318.977z"/>
		</g>
		<g>
			<path style="fill:#E0E0E0;" d="M417.197,354.293c6.656,6.514,16.927,7.003,23.676,13.405c0.937,0.93,1.801,1.941,2.454,3.077
				C436.547,362.477,423.795,362.791,417.197,354.293L417.197,354.293z"/>
		</g>
		<g>
			<path style="fill:#E0E0E0;" d="M402.626,335.126c5.077,5.275,7.034,12.925,4.182,19.777c-1.964,5.034-0.059,10.241,2.471,14.701
				c0.816,1.548,1.733,3.044,2.609,4.569c-2.103-2.81-4.127-5.718-5.536-9.005c-0.708-1.635-1.199-3.397-1.318-5.22
				c-0.284-3.626,1.704-6.89,2.132-10.339C407.775,344.426,405.717,339.283,402.626,335.126L402.626,335.126z"/>
		</g>
		<g>
			<path style="fill:#E0E0E0;" d="M397.606,329.985c4.867,1.554,14.631,4.708,19.484,6.296c6.448,2.265,12.681,5.704,17.39,10.713
				C424.029,337.838,409.854,335.779,397.606,329.985L397.606,329.985z"/>
		</g>
	</g>
	<g>
		<g>
			<g>
				<path style="fill:#EBEBEB;" d="M204.712,22.198c-0.34,4.875-3.796,9.975-4.797,14.758c-1.974,9.433-0.343,10.12,0.249,19.739
					c0.391,6.35-3.339,18.819,1.938,27.515c5.477,9.027,14.784,18.224,16.784,28.592l1.149-0.124c0,0,10.204-31.917,10.432-39.208
					c0.228-7.291-1.77-17.685-7.386-23.907c-5.615-6.223-10.084-5.884-12.667-12.29c-2.583-6.406-3.166-9.104-4.052-11.915
					C205.476,22.547,204.712,22.198,204.712,22.198z"/>
			</g>
		</g>
		<g>
			<path style="fill:#E0E0E0;" d="M219.33,112.754c3.288-14.922,0.647-30.754-5.106-44.737c-4.651-10.491-8.143-21.697-8.879-33.218
				c-0.231-3.831-0.223-7.676,0.119-11.49c-0.411,11.488,1.617,22.896,5.419,33.696c1.243,3.61,2.742,7.099,4.251,10.626
				C220.854,81.757,223.412,97.878,219.33,112.754L219.33,112.754z"/>
		</g>
		<g>
			<path style="fill:#E0E0E0;" d="M215.731,70.895c-1.843-7.662,3.322-14.746,3.479-22.296c0.051-1.071-0.045-2.145-0.228-3.22
				c0.402,1.016,0.603,2.108,0.718,3.205C220.299,56.326,215.181,63.167,215.731,70.895L215.731,70.895z"/>
		</g>
		<g>
			<path style="fill:#E0E0E0;" d="M220.327,90.407c-1.081-4.171-3.296-8.182-6.943-10.521c-2.442-1.543-5.6-2-7.781-4.114
				c-1.114-1.053-1.989-2.31-2.659-3.639c-1.357-2.661-2.138-5.507-2.796-8.357c0.534,1.364,1.017,2.744,1.592,4.082
				c1.548,3.963,3.871,7.91,8.13,9.31C215.736,78.916,219.736,84.392,220.327,90.407L220.327,90.407z"/>
		</g>
		<g>
			<path style="fill:#E0E0E0;" d="M220.971,96.355c2.655-10.971,8.834-21.144,8.602-32.698c1.309,8.648-2.131,16.978-5.39,24.8
				C223.401,90.426,221.786,94.397,220.971,96.355L220.971,96.355z"/>
		</g>
	</g>
	<g>
		<g>
			<g>
				<path style="fill:#E6E6E6;" d="M52.322,100.917c6.675,3.647,11.645,11.849,17.761,16.372c12.061,8.92,14.093,7.059,28.084,12.47
					c9.236,3.572,24.453,16.948,40.181,15.132c16.327-1.885,35.384-9.075,51.349-5.17l0.57-1.706c0,0-38.521-35.167-48.688-40.226
					c-10.167-5.058-26.167-8.983-38.617-5.082c-12.45,3.902-14.874,10.443-25.613,9.936c-10.739-0.507-14.935-1.435-19.487-2.007
					S52.322,100.917,52.322,100.917z"/>
			</g>
		</g>
		<g>
			<path style="fill:#E0E0E0;" d="M189.918,139.061c-18.876-14.539-43.039-21.158-66.591-22.13
				c-11.906-0.167-23.895-1.158-35.556-3.776c-11.645-2.604-22.967-6.765-33.388-12.581c15.907,8.198,33.405,12.822,51.164,14.476
				c5.919,0.586,11.845,0.774,17.811,0.892C147.024,117.004,171.414,123.821,189.918,139.061L189.918,139.061z"/>
		</g>
		<g>
			<path style="fill:#E0E0E0;" d="M128.366,116.963c-13.554-3.084-20.392-18.146-33.983-21.174c1.688,0.153,3.346,0.603,4.947,1.191
				C110.538,101.327,116.931,113.055,128.366,116.963L128.366,116.963z"/>
		</g>
		<g>
			<path style="fill:#E0E0E0;" d="M158.954,123.135c-6.588-1.352-13.795-0.86-19.545,2.751c-1.873,1.187-3.442,2.811-5.107,4.379
				c-3.247,3.315-7.858,5.279-12.506,5.376c-4.611,0.235-9.149-0.453-13.622-1.259c2.269,0.193,4.531,0.433,6.798,0.535
				c6.647,0.475,13.889-0.199,18.651-5.385c1.661-1.52,3.3-3.181,5.298-4.413C144.848,121.459,152.408,121.178,158.954,123.135
				L158.954,123.135z"/>
		</g>
		<g>
			<path style="fill:#E0E0E0;" d="M167.786,126.087c-6.726-5.751-12.951-12.081-19.162-18.365
				c-6.182-6.23-13.412-11.567-21.504-15.044c8.466,2.758,15.914,8.128,22.213,14.34
				C149.333,107.019,167.786,126.087,167.786,126.087L167.786,126.087z"/>
		</g>
	</g>
	<g>
		<g>
			<path style="fill:#E0E0E0;" d="M440.447,310.706c-0.144,0.104-13.944,10.029-27.205-3.206
				c-14.685-14.655-2.645-26.656-2.645-26.656L440.447,310.706z"/>
			<path style="fill:#EBEBEB;" d="M442.91,307.769c0,0-2.813,8.446-17.023,1.407c-14.21-7.038-18.514-17.561-17.282-23.805
				c1.233-6.243,4.358-5.412,4.358-5.412s0.197-1.774,4.559-2.583c4.362-0.809,14.21,0.242,22.741,10.406
				C447.817,296.784,447.852,305.382,442.91,307.769z"/>
			<path style="fill:#E0E0E0;" d="M443.04,307.745c-6.036-1.475-11.307-5.661-13.422-11.477c-0.61-1.681-1.016-3.449-1.704-5.144
				c-0.702-1.755-1.808-3.388-3.164-4.707c-1.316-1.311-2.924-2.381-4.568-3.206c-2.43-1.235-4.924-2.327-7.474-3.284
				c2.301,1.443,4.645,2.778,6.926,4.236c2.207,1.341,4.253,3.124,5.618,5.296c1.913,2.961,2.142,6.887,4.063,9.924
				C432.149,304.144,437.546,307.492,443.04,307.745L443.04,307.745z"/>
			<g style="opacity:0.3;">
				<path style="fill:#FFFFFF;" d="M412.996,284.587c0.002-0.004,0.004-0.007,0.006-0.011c0.301-0.535,1.133-0.672,1.848-0.341
					c2.358,1.094,4.836,2.823,6.358,4.597c0.435,0.507,0.839,1.055,0.848,1.652c0.003,0.221-0.061,0.434-0.202,0.602
					c-0.462,0.549-1.383,0.388-2.163,0.17c-1.539-0.43-3.066-1.046-4.334-1.964c-1.268-0.918-2.258-2.166-2.493-3.455
					C412.785,285.402,412.794,284.957,412.996,284.587z"/>
			</g>
		</g>
		<g style="opacity:0.3;">
			<path style="fill:#FFFFFF;" d="M415.8,279.515c6.532-1.96,14.186,0.434,18.642,5.543C428.97,281.06,422.588,279.03,415.8,279.515
				L415.8,279.515z"/>
		</g>
		<g style="opacity:0.3;">
			<path style="fill:#FFFFFF;" d="M436.41,287.057c1.233,0.32,2.002,1.138,2.231,2.393
				C437.405,289.133,436.643,288.309,436.41,287.057L436.41,287.057z"/>
		</g>
		<g style="opacity:0.3;">
			<path style="fill:#FFFFFF;" d="M425.933,295.227c1.415,5.092,4.552,9.246,9.053,12.014
				C429.845,305.861,425.847,300.547,425.933,295.227L425.933,295.227z"/>
		</g>
	</g>
	<g>
		<g>
			<path style="fill:#E0E0E0;" d="M92.392,340.121c0.086,0.155,8.251,15.064-6.504,26.61c-16.338,12.786-26.779-0.63-26.779-0.63
				L92.392,340.121z"/>
			<path style="fill:#EBEBEB;" d="M89.778,337.317c0,0,8.039,3.823-0.682,17.067c-8.721,13.244-19.691,16.231-25.737,14.246
				c-6.046-1.986-4.839-4.986-4.839-4.986s-1.736-0.412-2.007-4.84c-0.27-4.428,1.975-14.074,13.105-21.3
				C79.475,331.106,88.012,332.121,89.778,337.317z"/>
			<path style="fill:#E0E0E0;" d="M89.77,337.186c-2.201,5.811-7,10.531-13.03,11.92c-1.743,0.4-3.548,0.587-5.314,1.063
				c-1.827,0.482-3.583,1.381-5.058,2.565c-1.462,1.146-2.72,2.612-3.74,4.143c-1.523,2.26-2.911,4.603-4.172,7.017
				c1.713-2.108,3.324-4.271,5.05-6.357c1.6-2.027,3.62-3.84,5.943-4.929c3.173-1.538,7.097-1.285,10.346-2.82
				C84.866,347.556,88.848,342.608,89.77,337.186L89.77,337.186z"/>
			<g style="opacity:0.3;">
				<path style="fill:#FFFFFF;" d="M63.117,364.177c-0.003-0.003-0.007-0.005-0.01-0.007c-0.494-0.364-0.529-1.207-0.113-1.876
					c1.374-2.207,3.392-4.455,5.339-5.749c0.556-0.37,1.15-0.704,1.744-0.64c0.22,0.024,0.423,0.113,0.573,0.275
					c0.489,0.526,0.217,1.42-0.095,2.168c-0.615,1.475-1.412,2.915-2.479,4.061c-1.066,1.146-2.425,1.976-3.733,2.052
					C63.901,364.486,63.459,364.422,63.117,364.177z"/>
			</g>
		</g>
		<g style="opacity:0.3;">
			<path style="fill:#FFFFFF;" d="M58.426,360.774c-1.147-6.722,2.163-14.026,7.778-17.826
				C61.567,347.892,58.773,353.978,58.426,360.774L58.426,360.774z"/>
		</g>
		<g style="opacity:0.3;">
			<path style="fill:#FFFFFF;" d="M68.427,341.24c0.468-1.184,1.374-1.848,2.647-1.922C70.61,340.506,69.699,341.161,68.427,341.24
				L68.427,341.24z"/>
		</g>
		<g style="opacity:0.3;">
			<path style="fill:#FFFFFF;" d="M75.257,352.636c5.227-0.783,9.733-3.389,13.029-7.518
				C86.29,350.052,80.527,353.371,75.257,352.636L75.257,352.636z"/>
		</g>
	</g>
	<g>
		<g>
			<path style="fill:#E0E0E0;" d="M102.643,166.988c-0.031,0.095-3.037,9.211-13.489,7.572
				c-11.574-1.815-10.061-11.295-10.061-11.295L102.643,166.988z"/>
			<path style="fill:#EBEBEB;" d="M102.793,164.828c0,0,1.521,4.791-7.306,6.297c-8.827,1.505-14.288-1.87-15.799-5.131
				c-1.511-3.26,0.193-3.919,0.193-3.919s-0.499-0.876,1.224-2.694c1.723-1.818,6.57-4.609,13.842-2.801
				C101.385,158.182,104.257,162.097,102.793,164.828z"/>
			<path style="fill:#E0E0E0;" d="M102.844,164.775c-3.246,1.331-7.044,1.17-9.941-0.783c-0.837-0.565-1.61-1.238-2.487-1.783
				c-0.903-0.568-1.951-0.947-3.008-1.099c-1.036-0.162-2.126-0.116-3.151,0.053c-1.52,0.243-3.021,0.573-4.504,0.982
				c1.53-0.106,3.044-0.274,4.57-0.366c1.453-0.121,2.98,0.014,4.325,0.553c1.857,0.717,3.265,2.434,5.151,3.183
				C96.674,166.747,100.251,166.484,102.844,164.775L102.844,164.775z"/>
			<g style="opacity:0.3;">
				<path style="fill:#FFFFFF;" d="M81.432,164.178c0-0.002-0.001-0.005-0.001-0.007c-0.04-0.344,0.294-0.683,0.731-0.769
					c1.44-0.284,3.146-0.317,4.43-0.012c0.367,0.087,0.734,0.203,0.936,0.473c0.075,0.1,0.116,0.218,0.108,0.342
					c-0.029,0.404-0.502,0.637-0.931,0.796c-0.846,0.315-1.748,0.541-2.631,0.542c-0.884,0.002-1.751-0.239-2.286-0.75
					C81.606,164.62,81.463,164.413,81.432,164.178z"/>
			</g>
		</g>
		<g style="opacity:0.3;">
			<path style="fill:#FFFFFF;" d="M81.028,160.93c2.097-3.29,6.661-4.84,10.354-3.66C87.52,157.586,84.2,158.682,81.028,160.93
				L81.028,160.93z"/>
		</g>
		<g style="opacity:0.3;">
			<path style="fill:#FFFFFF;" d="M92.945,157.529c0.698-0.555,1.375-0.429,1.813,0.352
				C94.06,158.441,93.385,158.305,92.945,157.529L92.945,157.529z"/>
		</g>
		<g style="opacity:0.3;">
			<path style="fill:#FFFFFF;" d="M90.874,164.74c2.572,1.622,5.086,2.384,8.125,2.48C96.26,168.623,92.365,167.429,90.874,164.74
				L90.874,164.74z"/>
		</g>
	</g>
	<g>
		<g>
			<path style="fill:#E0E0E0;" d="M435.975,242.401c0.027,0.096,2.613,9.34-6.979,13.805c-10.621,4.944-14.649-3.77-14.649-3.77
				L435.975,242.401z"/>
			<path style="fill:#EBEBEB;" d="M434.895,240.525c0,0,3.933,3.131-2.557,9.3c-6.49,6.17-12.905,6.41-15.977,4.545
				c-3.072-1.865-2.024-3.361-2.024-3.361s-0.902-0.449-0.485-2.919c0.417-2.47,2.885-7.489,9.931-10.04
				C430.022,235.791,434.588,237.441,434.895,240.525z"/>
			<path style="fill:#E0E0E0;" d="M434.908,240.452c-1.953,2.915-5.196,4.897-8.691,4.891c-1.01-0.003-2.026-0.131-3.059-0.095
				c-1.067,0.031-2.147,0.301-3.11,0.764c-0.951,0.443-1.83,1.089-2.587,1.8c-1.126,1.049-2.189,2.159-3.192,3.326
				c1.212-0.941,2.375-1.924,3.59-2.851c1.139-0.91,2.482-1.649,3.899-1.951c1.942-0.44,4.068,0.201,6.051-0.229
				C430.885,245.528,433.708,243.316,434.908,240.452L434.908,240.452z"/>
			<g style="opacity:0.3;">
				<path style="fill:#FFFFFF;" d="M416.798,251.89c-0.002-0.002-0.003-0.004-0.005-0.005c-0.225-0.263-0.137-0.731,0.178-1.046
					c1.038-1.038,2.435-2.017,3.671-2.48c0.353-0.132,0.722-0.24,1.041-0.129c0.118,0.041,0.218,0.117,0.28,0.224
					c0.202,0.352-0.062,0.809-0.329,1.18c-0.527,0.733-1.15,1.423-1.882,1.917c-0.733,0.494-1.587,0.777-2.316,0.652
					C417.189,252.16,416.954,252.069,416.798,251.89z"/>
			</g>
		</g>
		<g style="opacity:0.3;">
			<path style="fill:#FFFFFF;" d="M414.652,249.419c-0.093-3.9,2.833-7.731,6.557-8.81
				C418.178,243.024,416.032,245.784,414.652,249.419L414.652,249.419z"/>
		</g>
		<g style="opacity:0.3;">
			<path style="fill:#FFFFFF;" d="M422.651,239.953c0.27-0.85,0.902-1.122,1.702-0.719
				C424.084,240.088,423.449,240.352,422.651,239.953L422.651,239.953z"/>
		</g>
		<g style="opacity:0.3;">
			<path style="fill:#FFFFFF;" d="M424.95,247.094c3.039-0.086,5.552-0.855,8.128-2.469
				C431.587,247.317,427.687,248.496,424.95,247.094L424.95,247.094z"/>
		</g>
	</g>
	<g>
		<g>
			<path style="fill:#E0E0E0;" d="M378.959,358.884c0.058,0.082,5.586,7.929-1.96,15.344c-8.356,8.211-15.066,1.346-15.066,1.346
				L378.959,358.884z"/>
			<path style="fill:#EBEBEB;" d="M377.315,357.477c0,0,4.753,1.635,0.701,9.62c-4.052,7.985-10.018,10.358-13.537,9.627
				c-3.518-0.73-3.032-2.491-3.032-2.491s-1.001-0.121-1.433-2.588c-0.433-2.467,0.215-8.023,6.001-12.784
				C371.139,354.646,375.994,354.673,377.315,357.477z"/>
			<path style="fill:#E0E0E0;" d="M377.302,357.404c-0.866,3.4-3.259,6.353-6.554,7.516c-0.953,0.335-1.953,0.555-2.914,0.934
				c-0.995,0.386-1.923,1.002-2.675,1.761c-0.748,0.736-1.36,1.638-1.836,2.562c-0.711,1.365-1.341,2.767-1.896,4.202
				c0.827-1.292,1.594-2.608,2.43-3.888c0.769-1.239,1.787-2.384,3.022-3.143c1.683-1.064,3.901-1.171,5.626-2.239
				C375.209,363.533,377.129,360.504,377.302,357.404L377.302,357.404z"/>
			<g style="opacity:0.3;">
				<path style="fill:#FFFFFF;" d="M364.06,374.24c-0.002-0.001-0.004-0.002-0.006-0.004c-0.3-0.173-0.373-0.643-0.182-1.045
					c0.631-1.326,1.621-2.715,2.631-3.565c0.289-0.243,0.6-0.468,0.938-0.47c0.125-0.001,0.245,0.037,0.339,0.118
					c0.308,0.264,0.212,0.783,0.084,1.222c-0.251,0.867-0.607,1.725-1.133,2.436c-0.525,0.711-1.236,1.263-1.965,1.389
					C364.519,374.364,364.268,374.356,364.06,374.24z"/>
			</g>
		</g>
		<g style="opacity:0.3;">
			<path style="fill:#FFFFFF;" d="M361.212,372.629c-1.392-3.645,0.084-8.233,3.232-10.496
				C362.396,365.423,361.297,368.742,361.212,372.629L361.212,372.629z"/>
		</g>
		<g style="opacity:0.3;">
			<path style="fill:#FFFFFF;" d="M365.584,361.033c-0.03-0.892,0.475-1.36,1.363-1.246
				C366.98,360.681,366.469,361.142,365.584,361.033L365.584,361.033z"/>
		</g>
		<g style="opacity:0.3;">
			<path style="fill:#FFFFFF;" d="M370.139,366.994c2.835-1.098,4.946-2.663,6.834-5.046
				C376.468,364.984,373.188,367.4,370.139,366.994L370.139,366.994z"/>
		</g>
	</g>
	<g>
		<g>
			<g>
				<g>
					<g>
						<path style="fill:#E0E0E0;" d="M443.92,330.198H263.174c-3.232,0-5.862-2.63-5.862-5.862V61.062
							c0-3.232,2.63-5.862,5.862-5.862H443.92c3.232,0,5.862,2.629,5.862,5.862v263.273
							C449.783,327.568,447.153,330.198,443.92,330.198z M263.174,55.45c-3.095,0-5.612,2.518-5.612,5.612v263.273
							c0,3.095,2.518,5.612,5.612,5.612H443.92c3.095,0,5.612-2.518,5.612-5.612V61.062c0-3.094-2.518-5.612-5.612-5.612H263.174z"
							/>
					</g>
				</g>
				<g>
					<g>
						<path style="fill:#E0E0E0;" d="M235.493,330.198H54.746c-3.232,0-5.862-2.63-5.862-5.862V61.062
							c0-3.232,2.629-5.862,5.862-5.862h180.747c3.232,0,5.862,2.629,5.862,5.862v263.273
							C241.355,327.568,238.725,330.198,235.493,330.198z M54.746,55.45c-3.094,0-5.612,2.518-5.612,5.612v263.273
							c0,3.095,2.518,5.612,5.612,5.612h180.747c3.095,0,5.612-2.518,5.612-5.612V61.062c0-3.094-2.518-5.612-5.612-5.612H54.746z"
							/>
					</g>
				</g>
			</g>
			<g>
				<g>
					<rect x="0" y="391.267" style="fill:#E0E0E0;" width="500" height="0.25"/>
				</g>
			</g>
		</g>
		<rect x="51.672" y="405.531" style="fill:#E0E0E0;" width="16.06" height="0.25"/>
		<rect x="170.352" y="402.821" style="fill:#E0E0E0;" width="53.53" height="0.25"/>
		<rect x="68.732" y="414.821" style="fill:#E0E0E0;" width="36.25" height="0.25"/>
		<rect x="378.352" y="402.691" style="fill:#E0E0E0;" width="43.19" height="0.25"/>
		<rect x="430.452" y="402.691" style="fill:#E0E0E0;" width="6.33" height="0.25"/>
		<rect x="316.212" y="408.921" style="fill:#E0E0E0;" width="53.89" height="0.25"/>
	</g>
</g>
<g id="Background_simple" style="display:none;">
	<g style="display:inline;">
		<path style="fill:#407BFF;" d="M177.771,42.123c-21.564,2.847-42.358,8.907-60.801,18.414
			c-21.737,11.204-43.946,28.659-37.386,51.49c12.11,42.149,70.206,42.917,58.607,71.257c-13.139,32.102-4.328,69.757,54.63,80.228
			c111.982,19.889,247.351-96.484,209.331-160.43C378.482,63.271,292.272,27.009,177.771,42.123z"/>
		<path style="opacity:0.9;fill:#FFFFFF;" d="M177.771,42.123c-21.564,2.847-42.358,8.907-60.801,18.414
			c-21.737,11.204-43.946,28.659-37.386,51.49c12.11,42.149,70.206,42.917,58.607,71.257c-13.139,32.102-4.328,69.757,54.63,80.228
			c111.982,19.889,247.351-96.484,209.331-160.43C378.482,63.271,292.272,27.009,177.771,42.123z"/>
	</g>
</g>
<g id="Shadow">
	<g>
		<g>
			<path style="fill:#F5F5F5;" d="M458.875,460.419c0,3.387-93.517,6.132-208.875,6.132s-208.875-2.746-208.875-6.132
				c0-3.387,93.516-6.132,208.875-6.132S458.875,457.033,458.875,460.419z"/>
		</g>
	</g>
</g>
<g id="Cup_2">
	<g>
		<g>
			<path style="fill:#407BFF;" d="M273.644,139.746l-44.636,209.852c0,0,23.302,36.849,76.423,42.093c0,0,14.251,2.846,30.76-4.332
				l92.354-196.744L273.644,139.746z"/>
			<path style="opacity:0.5;fill:#FFFFFF;" d="M273.644,139.746l-44.636,209.852c0,0,23.302,36.849,76.423,42.093
				c0,0,14.251,2.846,30.76-4.332l92.354-196.744L273.644,139.746z"/>
			<path style="opacity:0.5;fill:#FFFFFF;" d="M289.998,143.018c0,0,15.668,76.736,119.557,89.352l14.279-30.418
				C319.945,189.336,299.69,97.45,299.69,97.45"/>
			<path style="opacity:0.3;" d="M273.006,142.749c0,0,32.12,42.122,81.406,54.182c49.285,12.06,72.089-1.956,72.089-1.956
				l4.798-9.01L273.006,142.749z"/>
			<path style="fill:#263238;" d="M439.293,184.281l2.077-17.293l-7.737-11.984l4.653-17.429l-73.558-22.945l-73.729-23.121
				l-5.711,15.31l-13.249,5.286l-8.326,15.299c4.275,27.754,80.107,51.361,80.107,51.361v0
				C352.854,181.805,420.828,203.822,439.293,184.281z"/>
			<path style="opacity:0.3;" d="M285.288,106.819c0,0,23.958,24.229,79.086,39.703c55.128,15.474,69.259,8.482,69.259,8.482
				l4.424-16.57L290.995,91.481L285.288,106.819z"/>
			<path style="fill:#263238;" d="M438.057,138.434c-2.683,8.04-38.106,5.583-78.6-7.929
				c-40.493-13.512-71.145-30.983-68.462-39.023s37.684-3.604,78.177,9.908S440.74,130.394,438.057,138.434z"/>
			<path style="opacity:0.3;" d="M343.819,178.764L343.819,178.764c9.035,3.041,77.009,25.058,95.473,5.517l1.942-16.172
				c-11.153,4.35-34.314,7.938-78.414-4.009c-77.285-20.939-90.783-51.995-90.783-51.995l-8.326,15.299
				C267.988,155.158,343.819,178.764,343.819,178.764z"/>
			
				<ellipse transform="matrix(0.3484 -0.9374 0.9374 0.3484 113.2672 378.6615)" style="opacity:0.3;" cx="328.979" cy="107.865" rx="3.366" ry="15.19"/>
			<path style="opacity:0.3;" d="M367.335,111.375c28.335,8.853,51.491,18.614,57.779,24.022c0.531-0.22,0.866-0.509,0.98-0.875
				c1.285-4.114-25.321-16.086-59.426-26.741s-62.795-15.958-64.08-11.845c-0.217,0.696,0.366,1.618,1.647,2.719
				C309.685,96.403,336.26,101.667,367.335,111.375z"/>
			<g>
				<path d="M235.1,348.631c24.866,25.876,62.913,42.037,98.685,32.666c0,0-6.618,1.7-6.618,1.7l-6.752,1.11
					C288.372,387.645,256.137,372.4,235.1,348.631L235.1,348.631z"/>
			</g>
			<path style="opacity:0.5;fill:#FFFFFF;" d="M248.319,258.81l-9.077,42.674c15.477,25.454,45.942,55.43,108.274,62.999
				l14.889-31.718C297.17,324.844,264.736,287.707,248.319,258.81z"/>
		</g>
		<path style="opacity:0.5;fill:#FFFFFF;" d="M259.326,207.064c0,0,15.668,76.736,119.556,89.352l14.279-30.418
			c-103.888-12.616-124.143-104.502-124.143-104.502"/>
		<path style="opacity:0.5;fill:#FFFFFF;" d="M285.025,152.193l-52.521,202.078c6.305,8.539,14.682,15.592,24.782,21.411
			l57.97-207.691C303.555,162.908,293.338,157.658,285.025,152.193z"/>
	</g>
</g>
<g id="Cup_1">
	<g>
		<path style="fill:#407BFF;" d="M82.329,256.576l82.055,198.235c0,0,40.073,17.174,86.825-8.587c0,0,13.358-5.725,22.899-20.991
			l-35.303-214.455L82.329,256.576z"/>
		<path style="opacity:0.3;" d="M83.503,259.412c0,0,50.327,16.526,97.778-1.446c47.45-17.972,58.307-42.437,58.307-42.437
			l-1.148-10.144L83.503,259.412z"/>
		<path style="fill:#263238;" d="M244.075,199.471l-8.082-15.429l-13.163-5.496l-6.035-17l-73.62,22.746l-73.86,22.699l3.963,15.853
			l-7.926,11.86l1.801,17.324c19.242,20.454,95.11-3.035,95.11-3.035v0C171.431,246.383,239.923,226.033,244.075,199.471z"/>
		<path style="opacity:0.3;" d="M73.278,222.844c0,0,33.467,6.401,87.666-12.066c54.199-18.467,61.886-32.232,61.886-32.232
			l-5.738-16.162L69.296,206.971L73.278,222.844z"/>
		<path style="fill:#263238;" d="M217.092,162.384c2.342,8.146-28.245,26.182-69.271,37.977
			c-41.026,11.796-76.183,14.755-78.525,6.609c-2.342-8.146,29.018-24.311,70.044-36.107
			C180.366,159.068,214.75,154.239,217.092,162.384z"/>
		<path style="opacity:0.3;" d="M162.263,248.993L162.263,248.993c9.168-2.61,77.66-22.959,81.813-49.521l-7.558-14.429
			c-6.729,9.902-23.785,25.975-66.898,41.103c-75.555,26.511-104.267,8.558-104.267,8.558l1.801,17.324
			C86.395,272.481,162.263,248.993,162.263,248.993z"/>
		<path style="opacity:0.3;" d="M124.613,195.261c0.453,1.803-5.775,4.922-13.912,6.967s-15.099,2.241-15.552,0.438
			c-0.453-1.803,5.775-4.922,13.912-6.967C117.196,193.654,124.16,193.458,124.613,195.261z"/>
		<path style="opacity:0.3;" d="M143.48,180.134c28.367-8.75,52.979-13.819,61.225-12.923c0.314-0.482,0.425-0.91,0.312-1.276
			c-1.27-4.118-29.979,1.081-64.122,11.614s-60.792,22.409-59.522,26.527c0.215,0.697,1.218,1.126,2.897,1.309
			C87.487,200.443,112.37,189.731,143.48,180.134z"/>
		<path style="opacity:0.3;fill:#FFFFFF;" d="M103.995,308.92c0,0,72.566,13.375,143.614-44.66l10.957,66.56
			c0,0-53.505,59.108-130.09,37.243L103.995,308.92z"/>
		<g>
			<path style="fill:#FFFFFF;" d="M164.094,346.763l0.47-0.35c0.593-0.362,1.013-0.545,1.26-0.549
				c0.546-0.008,1.144,0.476,1.793,1.452c0.396,0.61,0.598,1.101,0.604,1.471c0.006,0.37-0.108,0.68-0.342,0.931
				c-0.234,0.25-0.507,0.475-0.821,0.673c-0.314,0.199-0.615,0.389-0.903,0.569c-0.288,0.181-0.879,0.418-1.773,0.714
				c-0.894,0.296-1.76,0.451-2.596,0.464c-0.836,0.013-1.684-0.084-2.542-0.291c-0.858-0.207-1.743-0.564-2.659-1.069
				c-0.915-0.505-1.739-1.126-2.473-1.864c-0.734-0.736-1.344-1.688-1.828-2.852c-0.485-1.163-0.738-2.432-0.759-3.806
				c-0.022-1.374,0.188-2.623,0.628-3.75c0.44-1.124,1.011-2.059,1.713-2.801c0.702-0.741,1.507-1.366,2.415-1.873
				c1.711-0.979,3.438-1.48,5.182-1.508c0.827-0.013,1.671,0.102,2.529,0.344c0.858,0.243,1.509,0.492,1.954,0.75l0.64,0.359
				c0.32,0.188,0.569,0.343,0.746,0.463c0.464,0.363,0.7,0.778,0.707,1.244c0.007,0.467-0.17,0.959-0.532,1.476
				c-0.671,0.962-1.281,1.447-1.827,1.455c-0.317,0.006-0.77-0.182-1.356-0.561c-0.749-0.587-1.741-0.871-2.972-0.852
				c-1.145,0.018-2.266,0.432-3.364,1.241c-0.522,0.395-0.954,0.948-1.295,1.658c-0.342,0.71-0.505,1.511-0.491,2.399
				c0.014,0.89,0.202,1.683,0.566,2.382c0.363,0.699,0.82,1.247,1.373,1.643c1.086,0.759,2.211,1.128,3.373,1.111
				c0.546-0.009,1.06-0.088,1.542-0.236C163.539,347.054,163.884,346.907,164.094,346.763z"/>
			<path style="fill:#FFFFFF;" d="M171.539,338.884c1.183-1.637,2.708-2.64,4.574-3.01c1.866-0.37,3.648-0.028,5.349,1.026
				c1.699,1.055,2.755,2.618,3.167,4.691c0.284,1.434,0.165,2.78-0.356,4.043c-0.521,1.262-1.262,2.263-2.219,3
				c-0.958,0.738-2.007,1.221-3.147,1.446c-1.141,0.227-2.302,0.165-3.484-0.184c-1.183-0.349-2.251-0.999-3.202-1.95
				c-0.953-0.952-1.565-2.118-1.84-3.5C169.969,342.374,170.355,340.52,171.539,338.884z M176.165,345.225
				c0.637,0.314,1.24,0.413,1.81,0.301c0.57-0.114,1.098-0.442,1.582-0.987c0.484-0.545,0.643-1.241,0.475-2.088
				c-0.168-0.846-0.562-1.424-1.18-1.732c-0.618-0.308-1.238-0.4-1.859-0.276c-0.622,0.123-1.159,0.454-1.608,0.992
				c-0.45,0.539-0.591,1.227-0.425,2.064C175.126,344.335,175.528,344.911,176.165,345.225z"/>
			<path style="fill:#FFFFFF;" d="M201.002,328.351c1.137-0.427,1.923-0.365,2.356,0.188c0.217,0.276,0.421,0.67,0.613,1.182
				c0.192,0.511,0.292,0.94,0.299,1.284c0.007,0.346-0.08,0.628-0.26,0.847c-0.272,0.328-0.738,0.615-1.398,0.863l-1.62,0.495
				l2.491,6.629c0.235,0.627,0.332,1.121,0.29,1.485c-0.042,0.365-0.205,0.656-0.49,0.876c-0.284,0.219-0.682,0.426-1.193,0.617
				c-0.511,0.192-0.939,0.292-1.284,0.3c-0.346,0.008-0.629-0.084-0.851-0.273c-0.222-0.19-0.382-0.378-0.481-0.567
				c-0.099-0.188-0.22-0.472-0.362-0.852l-2.462-6.555c-0.773,0.347-1.415,0.617-1.926,0.809l-2.461,0.812l2.491,6.629
				c0.235,0.626,0.332,1.121,0.29,1.484c-0.042,0.365-0.206,0.656-0.489,0.876c-0.285,0.22-0.683,0.426-1.194,0.618
				c-0.511,0.191-0.939,0.292-1.284,0.299c-0.346,0.008-0.629-0.083-0.851-0.273c-0.222-0.19-0.382-0.378-0.481-0.566
				c-0.099-0.189-0.219-0.473-0.362-0.853l-2.463-6.554c-0.295,0.168-0.624,0.319-0.986,0.455c-0.363,0.137-0.716,0.11-1.061-0.08
				c-0.344-0.19-0.644-0.624-0.898-1.301c-0.254-0.676-0.397-1.182-0.429-1.518c-0.033-0.335,0.001-0.597,0.1-0.784
				c0.183-0.314,0.473-0.545,0.868-0.694l0.854-0.207l-0.493-1.31c-0.477-1.27-0.456-2.591,0.064-3.962
				c0.519-1.372,1.636-2.38,3.352-3.024c0.379-0.142,0.668-0.237,0.867-0.284c0.198-0.045,0.444-0.058,0.734-0.035
				c0.532,0.064,0.996,0.623,1.393,1.678c0.297,0.792,0.367,1.405,0.211,1.841c-0.126,0.367-0.433,0.652-0.921,0.853
				c-0.142,0.072-0.37,0.167-0.683,0.285c-0.61,0.229-0.838,0.551-0.683,0.963l0.512,1.36c0.865-0.401,1.619-0.723,2.262-0.964
				l2.115-0.681l-0.492-1.313c-0.477-1.268-0.456-2.59,0.064-3.961c0.52-1.371,1.637-2.378,3.352-3.022
				c0.395-0.149,0.688-0.245,0.879-0.288c0.191-0.044,0.431-0.054,0.722-0.031c0.532,0.064,0.996,0.623,1.393,1.677
				c0.297,0.792,0.368,1.405,0.211,1.84c-0.126,0.367-0.424,0.649-0.896,0.845c-0.159,0.079-0.395,0.177-0.708,0.295
				c-0.611,0.229-0.837,0.55-0.683,0.962l0.511,1.361L201.002,328.351z"/>
			<path style="fill:#FFFFFF;" d="M218.5,325.227c0.512,0.955,0.655,1.789,0.427,2.5c-0.228,0.713-0.629,1.223-1.203,1.53
				l-5.518,2.961c0.233,0.435,0.686,0.662,1.356,0.683c0.67,0.02,1.262-0.108,1.773-0.383c0.9-0.482,1.556-0.955,1.968-1.416
				l0.206-0.232c0.281-0.37,0.546-0.622,0.794-0.755c0.497-0.267,1.111-0.146,1.843,0.36c0.427,0.311,0.719,0.613,0.877,0.908
				c0.741,1.383-0.541,2.958-3.847,4.732c-1.148,0.617-2.275,0.967-3.38,1.05c-1.105,0.083-2.08-0.068-2.926-0.453
				c-1.653-0.732-2.895-1.875-3.728-3.428c-1.049-1.954-1.256-3.857-0.62-5.708c0.636-1.852,1.9-3.284,3.795-4.3
				c2.157-1.158,4.148-1.247,5.973-0.268C217.251,323.534,217.988,324.272,218.5,325.227z M213.957,328.55
				c0.589-0.316,0.751-0.723,0.485-1.22c-0.192-0.357-0.482-0.57-0.87-0.643c-0.388-0.071-0.835,0.028-1.339,0.298
				c-0.504,0.271-0.894,0.746-1.17,1.424c-0.276,0.679-0.289,1.249-0.039,1.715L213.957,328.55z"/>
			<path style="fill:#FFFFFF;" d="M230.959,315.611c0.679,0.843,0.973,1.637,0.88,2.378c-0.092,0.742-0.392,1.317-0.899,1.726
				l-4.876,3.929c0.31,0.385,0.796,0.524,1.458,0.42c0.663-0.104,1.22-0.339,1.673-0.703c0.795-0.641,1.353-1.226,1.673-1.755
				l0.16-0.265c0.208-0.416,0.421-0.712,0.64-0.889c0.439-0.354,1.064-0.35,1.877,0.014c0.477,0.227,0.82,0.47,1.03,0.73
				c0.984,1.221,0.015,3.007-2.907,5.361c-1.015,0.818-2.058,1.37-3.128,1.655c-1.07,0.287-2.057,0.318-2.96,0.096
				c-1.759-0.415-3.191-1.309-4.296-2.68c-1.393-1.728-1.947-3.56-1.664-5.496c0.283-1.937,1.262-3.578,2.935-4.927
				c1.906-1.536,3.847-1.991,5.822-1.366C229.419,314.178,230.279,314.769,230.959,315.611z M227.107,319.717
				c0.521-0.42,0.605-0.85,0.251-1.289c-0.254-0.314-0.579-0.473-0.973-0.471c-0.395,0.002-0.816,0.182-1.261,0.541
				c-0.446,0.359-0.741,0.898-0.888,1.614c-0.146,0.718-0.053,1.282,0.279,1.693L227.107,319.717z"/>
		</g>
		<g>
			<path d="M168.856,450.564c35.148,7.244,75.659-0.982,99.834-28.964c0,0-4.492,5.149-4.492,5.149l-4.936,4.738
				C234.857,452.55,199.656,458.241,168.856,450.564L168.856,450.564z"/>
		</g>
	</g>
</g>
<g id="Coffee_Bean">
	<g>
		<g>
			<path style="fill:#407BFF;" d="M242.149,112.385c0.114,0.155,10.945,15.059-3.328,29.505
				c-15.805,15.995-29.085,3.015-29.085,3.015L242.149,112.385z"/>
			<path style="opacity:0.3;" d="M242.149,112.385c0.114,0.155,10.945,15.059-3.328,29.505
				c-15.805,15.995-29.085,3.015-29.085,3.015L242.149,112.385z"/>
			<path style="fill:#407BFF;" d="M238.953,109.731c0,0,9.169,3.004,1.617,18.443c-7.552,15.439-18.935,20.162-25.708,18.859
				c-6.774-1.302-5.889-4.694-5.889-4.694s-1.924-0.204-2.824-4.927c-0.9-4.723,0.185-15.404,11.157-24.704
				C227.02,104.472,236.339,104.388,238.953,109.731z"/>
			<path style="opacity:0.3;" d="M238.926,109.591c-1.566,6.55-6.076,12.286-12.367,14.61c-1.819,0.67-3.733,1.12-5.566,1.874
				c-1.898,0.77-3.662,1.978-5.085,3.455c-1.414,1.433-2.565,3.182-3.45,4.969c-1.326,2.64-2.496,5.349-3.52,8.118
				c1.551-2.502,2.986-5.05,4.554-7.53c1.441-2.4,3.363-4.627,5.71-6.117c3.199-2.09,7.453-2.358,10.735-4.457
				C235.082,121.414,238.682,115.547,238.926,109.591L238.926,109.591z"/>
			<g style="opacity:0.3;">
				<path style="fill:#FFFFFF;" d="M213.988,142.279c-0.004-0.002-0.008-0.004-0.012-0.007c-0.581-0.323-0.735-1.225-0.379-2.001
					c1.173-2.562,3.034-5.257,4.948-6.916c0.547-0.474,1.139-0.916,1.786-0.929c0.24-0.005,0.471,0.064,0.654,0.216
					c0.598,0.498,0.429,1.496,0.196,2.343c-0.458,1.671-1.117,3.329-2.105,4.708c-0.988,1.379-2.335,2.459-3.731,2.721
					C214.872,142.504,214.389,142.496,213.988,142.279z"/>
			</g>
		</g>
		<g style="opacity:0.3;">
			<path style="fill:#FFFFFF;" d="M208.476,139.266c-2.097-7.08,0.44-15.335,5.907-20.236
				C210.031,124.942,207.851,131.923,208.476,139.266L208.476,139.266z"/>
		</g>
		<g style="opacity:0.3;">
			<path style="fill:#FFFFFF;" d="M216.539,116.888c0.381-1.298,1.26-2.133,2.581-2.431
				C218.743,115.758,217.857,116.585,216.539,116.888L216.539,116.888z"/>
		</g>
		<g style="opacity:0.3;">
			<path style="fill:#FFFFFF;" d="M225.451,128.199c5.521-1.498,10.055-4.957,12.973-9.877
				C236.897,123.876,231.207,128.201,225.451,128.199L225.451,128.199z"/>
		</g>
	</g>
	<g>
		<g>
			<path style="fill:#407BFF;" d="M195.007,107.026c-0.113,0.104-10.999,10.04-23.752-0.024
				c-14.121-11.144-4.981-22.854-4.981-22.854L195.007,107.026z"/>
			<path style="opacity:0.3;" d="M195.007,107.026c-0.113,0.104-10.999,10.04-23.752-0.024
				c-14.121-11.144-4.981-22.854-4.981-22.854L195.007,107.026z"/>
			<path style="fill:#407BFF;" d="M196.833,104.249c0,0-1.573,7.556-14.518,2.925c-12.945-4.632-17.711-13.261-17.278-18.762
				c0.433-5.501,3.208-5.099,3.208-5.099s-0.009-1.547,3.666-2.683c3.675-1.135,12.262-1.221,20.631,6.674
				C199.954,94.295,200.849,101.696,196.833,104.249z"/>
			<path style="opacity:0.3;" d="M196.942,104.215c-5.347-0.663-10.307-3.738-12.714-8.534c-0.695-1.386-1.222-2.868-1.985-4.259
				c-0.781-1.441-1.898-2.735-3.198-3.736c-1.265-0.997-2.758-1.756-4.257-2.301c-2.217-0.819-4.474-1.509-6.767-2.077
				c2.127,1.011,4.28,1.925,6.391,2.951c2.036,0.932,3.977,2.262,5.371,3.996c1.946,2.358,2.537,5.716,4.497,8.138
				C187.201,102.21,192.186,104.55,196.942,104.215L196.942,104.215z"/>
			<g style="opacity:0.3;">
				<path style="fill:#FFFFFF;" d="M168.739,87.294c0.001-0.003,0.003-0.007,0.004-0.01c0.205-0.491,0.908-0.693,1.557-0.479
					c2.141,0.705,4.449,1.944,5.938,3.319c0.425,0.393,0.829,0.824,0.897,1.338c0.025,0.19-0.009,0.38-0.114,0.539
					c-0.343,0.52-1.152,0.474-1.846,0.364c-1.369-0.216-2.745-0.592-3.93-1.255c-1.184-0.663-2.162-1.638-2.495-2.725
					C168.639,88.018,168.602,87.633,168.739,87.294z"/>
			</g>
		</g>
		<g style="opacity:0.3;">
			<path style="fill:#FFFFFF;" d="M170.644,82.644c5.399-2.44,12.319-1.135,16.612,2.898
				C182.083,82.73,176.468,81.639,170.644,82.644L170.644,82.644z"/>
		</g>
		<g style="opacity:0.3;">
			<path style="fill:#FFFFFF;" d="M189.152,87.066c1.15,0.081,1.9,0.711,2.162,1.836C190.161,88.826,189.417,88.187,189.152,87.066
				L189.152,87.066z"/>
		</g>
		<g style="opacity:0.3;">
			<path style="fill:#FFFFFF;" d="M180.951,95.156c1.828,4.216,4.882,7.408,9.005,9.436
				C185.359,104.018,181.314,99.772,180.951,95.156L180.951,95.156z"/>
		</g>
	</g>
	<g>
		<g>
			<path style="fill:#407BFF;" d="M275.495,76.458c0.009,0.127,0.858,12.34-12.273,15.446c-14.54,3.44-17.445-8.552-17.445-8.552
				L275.495,76.458z"/>
			<path style="opacity:0.3;" d="M275.495,76.458c0.009,0.127,0.858,12.34-12.273,15.446c-14.54,3.44-17.445-8.552-17.445-8.552
				L275.495,76.458z"/>
			<path style="fill:#407BFF;" d="M274.629,73.836c0,0,4.106,4.924-5.589,10.958c-9.695,6.035-17.771,4.683-21.128,1.562
				c-3.356-3.121-1.663-4.72-1.663-4.72s-1.012-0.793,0.146-3.771c1.158-2.978,5.533-8.611,14.991-9.983
				C269.762,66.669,275.04,69.906,274.629,73.836z"/>
			<path style="opacity:0.3;" d="M274.664,73.748c-3.191,3.138-7.752,4.779-12.115,3.87c-1.261-0.263-2.497-0.685-3.796-0.906
				c-1.341-0.235-2.76-0.176-4.082,0.154c-1.302,0.309-2.566,0.889-3.695,1.583c-1.677,1.02-3.291,2.133-4.844,3.332
				c1.756-0.863,3.462-1.792,5.219-2.637c1.658-0.844,3.525-1.421,5.372-1.433c2.539-0.05,5.029,1.298,7.617,1.273
				C268.331,79.053,272.427,77.017,274.664,73.748L274.664,73.748z"/>
			<g style="opacity:0.3;">
				<path style="fill:#FFFFFF;" d="M249.096,83.371c-0.001-0.003-0.003-0.005-0.005-0.008c-0.214-0.387,0.018-0.949,0.492-1.261
					c1.564-1.03,3.562-1.892,5.224-2.152c0.475-0.074,0.964-0.114,1.334,0.107c0.137,0.082,0.243,0.202,0.292,0.352
					c0.161,0.491-0.286,0.994-0.715,1.389c-0.847,0.78-1.802,1.481-2.845,1.91c-1.043,0.428-2.182,0.562-3.061,0.217
					C249.515,83.81,249.246,83.635,249.096,83.371z"/>
			</g>
		</g>
		<g style="opacity:0.3;">
			<path style="fill:#FFFFFF;" d="M247.053,79.732c1.08-4.82,5.585-8.727,10.459-9.316
				C253.048,72.454,249.522,75.469,247.053,79.732L247.053,79.732z"/>
		</g>
		<g style="opacity:0.3;">
			<path style="fill:#FFFFFF;" d="M259.482,69.968c0.619-0.819,1.425-0.984,2.311-0.46
				C261.175,70.332,260.367,70.488,259.482,69.968L259.482,69.968z"/>
		</g>
		<g style="opacity:0.3;">
			<path style="fill:#FFFFFF;" d="M260.515,79.48c3.738,0.867,7.27,0.538,10.788-0.991C268.63,81.293,263.655,81.745,260.515,79.48
				L260.515,79.48z"/>
		</g>
	</g>
</g>
</svg>
